<svg xmlns="http://www.w3.org/2000/svg" xmlns:xlink="http://www.w3.org/1999/xlink" width="179.475" height="22.738" viewBox="0 0 179.475 22.738">
  <defs>
    <clipPath id="clip-path">
      <path id="Trazado_6" data-name="Trazado 6" d="M1096.673,480.525a1.138,1.138,0,0,1-.346-.846v-15.37a1.089,1.089,0,0,1,.346-.815,1.15,1.15,0,0,1,.827-.334h14.235a1.11,1.11,0,0,1,.821.346,1.14,1.14,0,0,1,.34.828v1.16a1.16,1.16,0,0,1-1.161,1.161h-10.753v3.58h9.26a1.161,1.161,0,0,1,1.161,1.165v1.165a1.162,1.162,0,0,1-1.161,1.165h-9.26v3.642h10.729a1.088,1.088,0,0,1,.809.333,1.119,1.119,0,0,1,.327.815V479.7a1.108,1.108,0,0,1-.346.821,1.138,1.138,0,0,1-.827.34H1097.5a1.139,1.139,0,0,1-.827-.34m-10.047-4.463A1.271,1.271,0,0,0,1085.9,475a6.73,6.73,0,0,0-1.924-.738l-2.631-.639-2.881-.7a13.4,13.4,0,0,1-2.608-.9,4.945,4.945,0,0,1-1.88-1.519,3.706,3.706,0,0,1-.719-2.276,4.511,4.511,0,0,1,1.765-3.821q1.766-1.339,6.074-1.34l3.135.074a8.27,8.27,0,0,1,4.562,1.3,3.8,3.8,0,0,1,2.031,3.253,1.221,1.221,0,0,1-.432,1.049,1.4,1.4,0,0,1-.827.321H1088.1a1.78,1.78,0,0,1-1.667-1.173,2.616,2.616,0,0,0-2.629-1.259l-3.716-.074q-2.173,0-2.173,1.42,0,.778,1.414,1.15l3.33.877,3.9,1.026a8.062,8.062,0,0,1,3.355,1.74,3.891,3.891,0,0,1,1.374,3.035,4.505,4.505,0,0,1-1.771,3.821q-1.772,1.339-6.068,1.339l-3.741-.074a8.3,8.3,0,0,1-4.568-1.3,3.8,3.8,0,0,1-2.037-3.253,1.2,1.2,0,0,1,.432-1.043,1.434,1.434,0,0,1,.839-.315h1.469a1.779,1.779,0,0,1,1.667,1.16,2.616,2.616,0,0,0,2.63,1.259l4.321.086q2.172,0,2.173-1.42m32.237,2.694q-2.191-2.207-2.191-6.732,0-4.586,2.29-6.774t6.871-2.188h2.753a9.446,9.446,0,0,1,4.92,1.3,3.779,3.779,0,0,1,2.191,3.253,1.2,1.2,0,0,1-.432,1.043,1.433,1.433,0,0,1-.839.315h-1.469a1.844,1.844,0,0,1-1.667-1.16q-.655-1.259-3.136-1.259h-2.2q-2.7,0-3.667,1.163t-.963,4.305q0,3.073.864,4.259a3.578,3.578,0,0,0,3.087,1.186h2.531a4.305,4.305,0,0,0,2.846-.743,2.76,2.76,0,0,0,.87-2.133h-2.791a1.111,1.111,0,0,1-.821-.345,1.143,1.143,0,0,1-.34-.833v-.978a1.143,1.143,0,0,1,.34-.833,1.11,1.11,0,0,1,.821-.345h6.2a1.159,1.159,0,0,1,1.16,1.161v1.37a6.761,6.761,0,0,1-2.074,5.321q-2.074,1.852-6.086,1.852h-2.778a8.476,8.476,0,0,1-6.29-2.207m-42.3-18.162a6.642,6.642,0,0,0-6.643,6.642v9.453a6.642,6.642,0,0,0,6.643,6.642h56.21a6.642,6.642,0,0,0,6.643-6.642v-9.453a6.643,6.643,0,0,0-6.643-6.642Z" transform="translate(-1069.917 -460.594)" fill="none"/>
    </clipPath>
    <linearGradient id="linear-gradient" x1="-2.872" y1="5.082" x2="-2.869" y2="5.082" gradientUnits="objectBoundingBox">
      <stop offset="0" stop-color="#cf4f29"/>
      <stop offset="1" stop-color="#f27d29"/>
    </linearGradient>
  </defs>
  <g id="Grupo_7" data-name="Grupo 7" transform="translate(-42.82 -29.402)">
    <g id="Grupo_1" data-name="Grupo 1" transform="translate(152.799 29.402)" clip-path="url(#clip-path)">
      <rect id="Rectángulo_2" data-name="Rectángulo 2" width="69.496" height="22.738" transform="translate(0 0)" fill="url(#linear-gradient)"/>
    </g>
    <path id="Trazado_1" data-name="Trazado 1" d="M480.355,490.9v-15.37a1.15,1.15,0,0,1,.333-.827,1.09,1.09,0,0,1,.815-.346h9.42q7.457,0,7.463,6.883t-7.463,6.883h-5.914V490.9a1.159,1.159,0,0,1-1.16,1.161h-2.321a1.138,1.138,0,0,1-.827-.34,1.108,1.108,0,0,1-.345-.821m4.654-6.272h4.506a5.815,5.815,0,0,0,3.148-.7,3.909,3.909,0,0,0,0-5.383,5.818,5.818,0,0,0-3.148-.7h-4.506Z" transform="translate(-437.535 -442.384)" fill="#f7f7f7"/>
    <path id="Trazado_2" data-name="Trazado 2" d="M602.712,490.9v-15.37a1.151,1.151,0,0,1,.333-.827,1.089,1.089,0,0,1,.815-.346h10.186a6.964,6.964,0,0,1,4.636,1.519,5.075,5.075,0,0,1,1.809,4.1q0,3.593-4.655,4.506a3.882,3.882,0,0,1,1.364.939,12.786,12.786,0,0,1,1.451,1.914L620.9,490.9a1.277,1.277,0,0,1,.21.617.589.589,0,0,1-.037.21q-.123.333-.6.333H617.5a2.009,2.009,0,0,1-1.037-.34,2.51,2.51,0,0,1-.852-.821l-2.1-3.284a3.7,3.7,0,0,0-3.136-2.025h-3.012V490.9a1.16,1.16,0,0,1-1.161,1.161h-2.321a1.138,1.138,0,0,1-.827-.34,1.108,1.108,0,0,1-.346-.821m4.654-8.8h5.259a4.779,4.779,0,0,0,2.235-.506,1.832,1.832,0,0,0,.006-3.235,4.775,4.775,0,0,0-2.241-.506h-5.259Z" transform="translate(-537.067 -442.384)" fill="#f7f7f7"/>
    <path id="Trazado_3" data-name="Trazado 3" d="M722.837,488.613q-2.531-2.21-2.531-7.018t2.531-7.018q2.531-2.21,7.414-2.21t7.408,2.21q2.524,2.211,2.525,7.018t-2.525,7.018q-2.525,2.211-7.408,2.211t-7.414-2.211m3.377-11.43a8.4,8.4,0,0,0,0,8.831,6.248,6.248,0,0,0,8.068,0,8.44,8.44,0,0,0,0-8.831,6.229,6.229,0,0,0-8.068,0" transform="translate(-632.724 -440.769)" fill="#f7f7f7"/>
    <path id="Trazado_4" data-name="Trazado 4" d="M841.736,476.685v-1.16a1.14,1.14,0,0,1,1.173-1.173h15.667a1.14,1.14,0,0,1,1.173,1.173v1.16a1.117,1.117,0,0,1-.333.833,1.149,1.149,0,0,1-.839.327H853.07v13.074a1.079,1.079,0,0,1-.34.809,1.14,1.14,0,0,1-.821.327h-2.333a1.14,1.14,0,0,1-.821-.327,1.077,1.077,0,0,1-.34-.809V477.845h-5.506a1.149,1.149,0,0,1-.839-.327,1.117,1.117,0,0,1-.333-.833" transform="translate(-731.502 -442.383)" fill="#f7f7f7"/>
    <path id="Trazado_5" data-name="Trazado 5" d="M962.639,490.87V475.5a1.088,1.088,0,0,1,.346-.815,1.15,1.15,0,0,1,.827-.333h14.235a1.11,1.11,0,0,1,.821.346,1.14,1.14,0,0,1,.34.827v1.16a1.159,1.159,0,0,1-1.161,1.161H967.294v3.58h9.259a1.161,1.161,0,0,1,1.161,1.165v1.165a1.161,1.161,0,0,1-1.161,1.165h-9.259v3.642h10.729a1.089,1.089,0,0,1,.809.333,1.12,1.12,0,0,1,.327.815v1.185a1.108,1.108,0,0,1-.346.821,1.138,1.138,0,0,1-.827.34H963.812a1.17,1.17,0,0,1-1.173-1.185" transform="translate(-829.852 -442.383)" fill="#f7f7f7"/>
  </g>
</svg>
